<svg width="21" height="20" viewBox="0 0 21 20" fill="none" xmlns="http://www.w3.org/2000/svg">
<path d="M3.53556 13.3334V3.33341H1.8689V1.66675H4.3689C4.58991 1.66675 4.80187 1.75455 4.95815 1.91083C5.11443 2.06711 5.20223 2.27907 5.20223 2.50008V12.5001H15.5672L17.2339 5.83341H6.8689V4.16675H18.3022C18.4289 4.16675 18.5539 4.19563 18.6677 4.2512C18.7816 4.30676 18.8812 4.38754 18.9592 4.4874C19.0371 4.58727 19.0912 4.70358 19.1175 4.82751C19.1437 4.95143 19.1413 5.07971 19.1106 5.20258L17.0272 13.5359C16.9821 13.7161 16.878 13.8761 16.7316 13.9904C16.5851 14.1047 16.4047 14.1667 16.2189 14.1667H4.3689C4.14788 14.1667 3.93592 14.079 3.77964 13.9227C3.62336 13.7664 3.53556 13.5544 3.53556 13.3334V13.3334ZM5.20223 19.1667C4.7602 19.1667 4.33628 18.9912 4.02372 18.6786C3.71116 18.366 3.53556 17.9421 3.53556 17.5001C3.53556 17.0581 3.71116 16.6341 4.02372 16.3216C4.33628 16.009 4.7602 15.8334 5.20223 15.8334C5.64426 15.8334 6.06818 16.009 6.38074 16.3216C6.6933 16.6341 6.8689 17.0581 6.8689 17.5001C6.8689 17.9421 6.6933 18.366 6.38074 18.6786C6.06818 18.9912 5.64426 19.1667 5.20223 19.1667ZM15.2022 19.1667C14.7602 19.1667 14.3363 18.9912 14.0237 18.6786C13.7112 18.366 13.5356 17.9421 13.5356 17.5001C13.5356 17.0581 13.7112 16.6341 14.0237 16.3216C14.3363 16.009 14.7602 15.8334 15.2022 15.8334C15.6443 15.8334 16.0682 16.009 16.3807 16.3216C16.6933 16.6341 16.8689 17.0581 16.8689 17.5001C16.8689 17.9421 16.6933 18.366 16.3807 18.6786C16.0682 18.9912 15.6443 19.1667 15.2022 19.1667Z" fill="white"/>
</svg>